<svg width="54" height="49" viewBox="0 0 54 49" fill="none" xmlns="http://www.w3.org/2000/svg">
<path d="M34.4358 19.0556C37.044 19.0556 39.1608 21.1898 39.1608 23.8194V36.7473C39.1608 39.9969 37.8804 43.1134 35.6014 45.4113C33.3223 47.7091 30.2312 49 27.0081 49C23.785 49 20.6939 47.7091 18.4148 45.4113C16.1358 43.1134 14.8554 39.9969 14.8554 36.7473V23.8194C14.8554 21.1898 16.9695 19.0556 19.5804 19.0556H34.4358ZM13.8537 19.0556C12.9087 20.2043 12.3012 21.6417 12.1797 23.2206L12.1527 23.8194V36.7473C12.1527 39.053 12.6711 41.2362 13.5945 43.1853C11.9942 43.617 10.3168 43.6718 8.6921 43.3454C7.0674 43.0191 5.53891 42.3204 4.22482 41.3034C2.91072 40.2863 1.84623 38.9782 1.11365 37.4801C0.381071 35.9821 3.32094e-05 34.3342 0 32.6639V23.8194C4.42924e-05 22.6239 0.445962 21.472 1.24924 20.5925C2.05251 19.7131 3.15441 19.1703 4.3362 19.0719L4.725 19.0556H13.8537ZM40.1625 19.0556H49.275C51.8832 19.0556 54 21.1898 54 23.8194V32.6667C54.0004 34.3358 53.6201 35.9827 52.8886 37.4802C52.1572 38.9776 51.0941 40.2854 49.7814 41.3026C48.4688 42.3197 46.9418 43.019 45.3184 43.3464C43.695 43.6739 42.0187 43.6206 40.419 43.1908C41.229 41.4812 41.7258 39.5974 41.8365 37.6048L41.8608 36.7473V23.8194C41.8608 22.0092 41.2236 20.3486 40.1598 19.0556H40.1625ZM27 0C29.1483 0 31.2085 0.860415 32.7276 2.39196C34.2466 3.92351 35.1 6.00073 35.1 8.16667C35.1 10.3326 34.2466 12.4098 32.7276 13.9414C31.2085 15.4729 29.1483 16.3333 27 16.3333C24.8517 16.3333 22.7915 15.4729 21.2724 13.9414C19.7534 12.4098 18.9 10.3326 18.9 8.16667C18.9 6.00073 19.7534 3.92351 21.2724 2.39196C22.7915 0.860415 24.8517 0 27 0ZM44.55 2.72222C46.3402 2.72222 48.0571 3.43923 49.323 4.71552C50.5888 5.99181 51.3 7.72283 51.3 9.52778C51.3 11.3327 50.5888 13.0637 49.323 14.34C48.0571 15.6163 46.3402 16.3333 44.55 16.3333C42.7598 16.3333 41.0429 15.6163 39.777 14.34C38.5112 13.0637 37.8 11.3327 37.8 9.52778C37.8 7.72283 38.5112 5.99181 39.777 4.71552C41.0429 3.43923 42.7598 2.72222 44.55 2.72222ZM9.45 2.72222C11.2402 2.72222 12.9571 3.43923 14.223 4.71552C15.4888 5.99181 16.2 7.72283 16.2 9.52778C16.2 11.3327 15.4888 13.0637 14.223 14.34C12.9571 15.6163 11.2402 16.3333 9.45 16.3333C7.65979 16.3333 5.9429 15.6163 4.67703 14.34C3.41116 13.0637 2.7 11.3327 2.7 9.52778C2.7 7.72283 3.41116 5.99181 4.67703 4.71552C5.9429 3.43923 7.65979 2.72222 9.45 2.72222Z" fill="#1F998E"/>
</svg>
