<svg width="55" height="53" viewBox="0 0 55 53" fill="none" xmlns="http://www.w3.org/2000/svg">
<path d="M54.0203 27.8534L42.1093 22.5559V7.37746C42.1039 7.05902 42.0038 6.74881 41.8209 6.48381C41.6381 6.21882 41.3802 6.01021 41.0781 5.88286L28.1875 0.153571C27.9612 0.0524019 27.7149 0 27.4656 0C27.2163 0 26.97 0.0524019 26.7437 0.153571L13.8531 5.88286C13.5548 6.01627 13.3023 6.22954 13.1256 6.49739C12.9489 6.76524 12.8554 7.07644 12.8562 7.39406V22.5725L0.99688 27.8534C0.698539 27.9868 0.446053 28.2001 0.269363 28.468C0.092673 28.7358 -0.000808198 29.047 5.26408e-06 29.3646V45.6059C-0.000808198 45.9236 0.092673 46.2348 0.269363 46.5026C0.446053 46.7705 0.698539 46.9837 0.99688 47.1171L13.8875 52.8464C14.1137 52.9476 14.3601 53 14.6094 53C14.8587 53 15.105 52.9476 15.3312 52.8464L27.5 47.4327L39.6687 52.8464C39.895 52.9476 40.1413 53 40.3906 53C40.6399 53 40.8862 52.9476 41.1125 52.8464L54.0031 47.1171C54.3014 46.9837 54.5539 46.7705 54.7306 46.5026C54.9073 46.2348 55.0008 45.9236 55 45.6059V29.3646C55.0023 29.0488 54.9114 28.7389 54.7379 28.4712C54.5643 28.2036 54.3154 27.9892 54.0203 27.8534ZM40.4078 33.234L31.625 29.3646L40.4078 25.4621L49.1906 29.3646L40.4078 33.234ZM38.689 22.5393L27.6203 27.5213V14.7508C27.8275 14.7419 28.0313 14.6969 28.2219 14.618L38.6718 9.9847V22.5725L38.689 22.5393ZM27.5 3.4749L36.2828 7.37746L27.5 11.28L18.7344 7.37746L27.5 3.4749ZM14.6094 25.4455L23.3922 29.348L14.6094 33.234L5.82656 29.3646L14.6094 25.4455ZM25.7812 44.5265L14.6094 49.5085V36.738C14.8492 36.7242 15.0834 36.662 15.2969 36.5553L25.7469 31.9055L25.7812 44.5265ZM51.5625 44.5265L40.4593 49.5085V36.738C40.6757 36.7155 40.8857 36.6535 41.0781 36.5553L51.5281 31.9055L51.5625 44.5265Z" fill="#E8523F"/>
</svg>
