<svg width="46" height="45" viewBox="0 0 46 45" fill="none" xmlns="http://www.w3.org/2000/svg">
<path d="M35.2227 44.9999C34.6092 44.9993 34.0099 44.8108 33.5014 44.4587L23.1458 37.3379C23.0947 37.3018 23.0342 37.2824 22.9722 37.2824C22.9102 37.2824 22.8497 37.3018 22.7987 37.3379L12.4431 44.4587C11.9231 44.8149 11.3097 45.0004 10.6845 44.9906C10.0593 44.9807 9.45182 44.776 8.9427 44.4036C8.43359 44.0312 8.04694 43.5087 7.83411 42.9055C7.62128 42.3023 7.59233 41.6469 7.75111 41.0265L11.1521 28.7218C11.1682 28.6599 11.1662 28.5946 11.1465 28.5338C11.1267 28.4731 11.0901 28.4196 11.041 28.38L1.24066 20.476C0.724736 20.0816 0.342035 19.5316 0.146217 18.9029C-0.0496005 18.2741 -0.0487146 17.5983 0.148751 16.9701C0.346216 16.342 0.730358 15.7929 1.24731 15.4001C1.76427 15.0072 2.38812 14.7901 3.03138 14.7794L15.5248 14.2951C15.5862 14.2908 15.6451 14.2683 15.6944 14.2304C15.7436 14.1925 15.7811 14.1408 15.8024 14.0815L20.1057 2.07592C20.3226 1.46729 20.7166 0.941748 21.2343 0.570441C21.7519 0.199134 22.3683 0 23 0C23.6317 0 24.2481 0.199134 24.7657 0.570441C25.2834 0.941748 25.6774 1.46729 25.8943 2.07592L30.1976 14.0815C30.2189 14.1408 30.2564 14.1925 30.3056 14.2304C30.3549 14.2683 30.4138 14.2908 30.4752 14.2951L42.9686 14.7794C43.6119 14.7901 44.2357 15.0072 44.7527 15.4001C45.2696 15.7929 45.6538 16.342 45.8512 16.9701C46.0487 17.5983 46.0496 18.2741 45.8538 18.9029C45.658 19.5316 45.2753 20.0816 44.7593 20.476L34.959 28.38C34.9084 28.4183 34.8706 28.4717 34.8508 28.5329C34.8309 28.5941 34.8299 28.66 34.8479 28.7218L38.2489 41.0265C38.3683 41.4984 38.3801 41.9923 38.2835 42.4697C38.1869 42.9471 37.9844 43.3953 37.6918 43.7795C37.3992 44.1637 37.0242 44.4737 36.5961 44.6853C36.1679 44.8969 35.698 45.0046 35.2227 44.9999ZM22.9792 34.4326C23.5939 34.4519 24.1888 34.6603 24.6866 35.0308L35.0422 42.1516C35.0947 42.1925 35.1587 42.2149 35.2246 42.2154C35.2905 42.2159 35.3549 42.1946 35.408 42.1545C35.4611 42.1145 35.5001 42.0578 35.5193 41.9931C35.5384 41.9284 35.5366 41.8591 35.5142 41.7955L32.1132 29.4908C31.9459 28.8872 31.9582 28.2461 32.1487 27.6497C32.3392 27.0534 32.699 26.529 33.1821 26.1441L42.9825 18.24C43.036 18.2015 43.076 18.1464 43.0967 18.0828C43.1173 18.0193 43.1176 17.9506 43.0974 17.8868C43.0772 17.8231 43.0376 17.7676 42.9845 17.7287C42.9313 17.6897 42.8674 17.6693 42.802 17.6704L30.3086 17.1862C29.6969 17.1617 29.1061 16.9509 28.6117 16.5805C28.1172 16.2102 27.7414 15.6972 27.5323 15.1069L23.229 3.10131C23.2096 3.03756 23.1709 2.98184 23.1185 2.94228C23.066 2.90272 23.0026 2.88138 22.9375 2.88138C22.8724 2.88138 22.8091 2.90272 22.7566 2.94228C22.7042 2.98184 22.6654 3.03756 22.646 3.10131L18.3844 15.0927C18.1753 15.683 17.7995 16.196 17.305 16.5663C16.8106 16.9366 16.2198 17.1475 15.6081 17.1719L3.11467 17.6561C3.04935 17.6551 2.98541 17.6755 2.93224 17.7144C2.87908 17.7534 2.8395 17.8088 2.8193 17.8726C2.79911 17.9363 2.79937 18.005 2.82006 18.0686C2.84074 18.1322 2.88075 18.1873 2.93421 18.2258L12.7485 26.1441C13.2301 26.5303 13.5889 27.0547 13.7792 27.6506C13.9695 28.2466 13.9828 28.8871 13.8174 29.4908L10.4303 41.7955C10.41 41.8571 10.4099 41.9238 10.43 41.9855C10.45 42.0472 10.4891 42.1005 10.5413 42.1373C10.5916 42.1814 10.6556 42.2057 10.7218 42.2057C10.7879 42.2057 10.8519 42.1814 10.9022 42.1373L21.2579 35.0165C21.764 34.6721 22.358 34.4888 22.9653 34.4896L22.9792 34.4326Z" fill="#FFDA3B"/>
</svg>
